<?xml version="1.0" standalone="no"?>
<!DOCTYPE svg PUBLIC "-//W3C//DTD SVG 20010904//EN"
 "http://www.w3.org/TR/2001/REC-SVG-20010904/DTD/svg10.dtd">
<svg version="1.0" xmlns="http://www.w3.org/2000/svg"
 width="82.000000pt" height="80.000000pt" viewBox="0 0 82.000000 80.000000"
 preserveAspectRatio="xMidYMid meet">
<metadata>
Created by potrace 1.15, written by Peter Selinger 2001-2017
</metadata>
<g transform="translate(0.000000,80.000000) scale(0.100000,-0.100000)"
fill="#000000" stroke="none">
<path d="M299 719 c-164 -113 -299 -221 -298 -238 0 -9 35 -119 77 -246 l77
-230 255 0 255 0 77 230 c42 127 77 237 77 247 1 19 -383 308 -410 308 -3 0
-53 -32 -110 -71z m232 -110 c63 -45 133 -96 155 -115 l41 -33 -61 -191 -60
-190 -196 0 -196 0 -62 192 c-34 105 -61 192 -60 193 2 1 30 22 63 47 96 72
247 178 255 178 4 0 58 -36 121 -81z"/>
<path d="M298 512 c-59 -42 -108 -84 -108 -92 0 -8 18 -70 41 -137 l41 -123
138 0 139 0 40 125 c23 68 41 130 41 137 -1 11 -195 157 -218 165 -4 1 -55
-32 -114 -75z"/>
</g>
</svg>
