<?xml version="1.0" encoding="utf-8"?>
<!-- Generator: Adobe Illustrator 21.0.0, SVG Export Plug-In . SVG Version: 6.00 Build 0)  -->
<svg version="1.1" id="Layer_1" xmlns="http://www.w3.org/2000/svg" xmlns:xlink="http://www.w3.org/1999/xlink" x="0px" y="0px"
	 viewBox="0 0 1161 1188.4" style="enable-background:new 0 0 1161 1188.4;" xml:space="preserve">
<style type="text/css">
	.st0{fill:#FF0079;}
	.st1{fill:#FF4600;}
	.st2{fill:#FF4F00;}
	.st3{fill:#FF5E00;}
	.st4{fill:#FF5900;}
	.st5{fill:#FF834C;}
	.st6{fill:#FFDACB;}
	.st7{fill:#FFDED0;}
	.st8{fill:#FFDECF;}
	.st9{fill:#FF6D25;}
	.st10{fill:#FFE4D8;}
	.st11{fill:#FF8B59;}
	.st12{fill:#FF8754;}
	.st13{fill:#FF6D28;}
	.st14{fill:#FF8D5C;}
	.st15{fill:#FFBEA2;}
	.st16{fill:#F7F7F7;}
	.st17{fill:#FF2C00;}
	.st18{fill:#BABABA;}
	.st19{fill:#F96A24;}
	.st20{fill:#F47239;}
</style>
<g id="Layer_2">
</g>
<g id="Layer_1_1_">
	<g>
		<path class="st0" d="M383.6,0.9c0.1,1.5,0.2,3,0.2,4.5c0,41,0,81.9,0.1,122.9c0,3.9-1.2,4.7-4.8,4.5c-22.4-0.9-44.9-0.7-67.3,1.1
			c-10.2,0.8-20.2,2.6-30.1,5.4c-13.8,4-22.2,12.9-25.9,26.8c-2.9,10.8-4.2,21.9-4.2,33c0,37.6,2.3,75.3,1.5,112.9
			c-1,2.6-3.5,3.2-5.6,4.1c-32.1,14.6-62.3,32.4-89.5,54.9c-8,6.6-13.6,15.3-19.4,23.7c-11.4,16.6-21,34.1-24.6,54.3
			c-2,11.3-2.9,22.7-3.3,34.1c-0.9,25-2.5,49.9-6.6,74.6c-2.4,14.4-3.2,29-4.4,43.6c-1.8,23.2-1.6,46.3-1.7,69.5
			c0,3.8,0.1,7.5,0.6,11.3c0.3,2.2,1.3,4.9-1.8,6.2c-0.3-0.2-0.6-0.3-0.7-0.5c-2.7-6.9-8.8-8.7-15.1-10.7
			c-21.1-6.9-42.5-12.3-64.7-14.6c-2.6-0.3-5.1-0.1-7.7-0.2c-3-0.2-6-0.2-8.6-2.1c0-0.3,0-0.6,0-0.9c0.8-1.2,0.4-2.6,0.5-4
			c0-40.5,0-80.9,0-121.4c0-1.3,0.4-2.7-0.5-4c0-0.3,0-0.6,0-0.9c2.2-1.8,4.8-1.4,7.4-1.4c15.8-0.1,31.6-1.1,47.2-3.7
			c12.2-2.1,23.9-5.8,35.1-11.3c5.4-2.7,7.6-6,7.6-12.2c-0.2-84.4-0.1-168.7-0.1-253.1c0-2.3-0.2-4.5,0.3-6.8
			c0.2-1.2,0.2-2.9,2.3-2.5c0.3,1.2,0.2,2.4,0.2,3.6c0,87.1,0,174.1,0,261.2c0,1.1,0.1,2.3,0,3c0.4-0.6,0-1.7,0-2.7
			c0-86.9,0-173.8,0-260.7c0-2.2,0.3-4.5-1.2-6.5c-1.7-3.2-0.5-6.5-0.5-9.8c0-30.6,2.7-61,9.9-90.9c10.9-45.3,36.3-79.3,77.3-101.8
			c28.7-15.8,59.9-23.3,91.9-28.2c20.9-3.2,41.8-4.6,62.9-4.7c3.5-0.3,7.1,0.6,10.6-0.5c0.9,0,1.8,0,2.7,0c4,1,8.1,0.2,12.1,0.5
			C371.7,0.7,377.6,0,383.6,0.9z"/>
		<path class="st0" d="M909.9,313.9c-0.7-31.2,2.3-62.3,2.6-93.5c0.2-15.8,0-31.6-3.6-47.1c-5.5-23.6-14.8-32.4-38.6-36.7
			c-24.6-4.5-49.4-4.3-74.3-4.1c-5,0-9.9,0.1-14.9,0.3c-2,0.1-3-0.2-3-2.6c0.1-42.9,0.2-85.9,0.2-128.8c0-0.1,0.1-0.3,0.1-0.4
			c9.5-1,19-0.2,28.5-0.4c2.7,0,5.5,0,8.2,0c2.6-0.2,5.2,0.5,7.7-0.5c0.6,0,1.2,0,1.8,0c3.6,1.1,7.3,0.2,10.9,0.5
			c39.8,0.2,78.6,6.2,115.6,21.4c23,9.4,43.9,22.1,61.6,39.5c14.2,13.9,25.2,30.3,33.6,48.4c9.5,20.5,14.7,42,15.8,64.5
			c0.8,16.4,2,32.8,1.6,49.2c-1.9,78-0.1,156-1,234.1c-0.2,14.5-0.2,28.8,1,43.2c0.5,6.1,2.6,9.7,8.7,12.1
			c18.3,7.1,37.1,11.5,56.6,13.2c9.7,0.9,19.5,0.9,29.3,1.8c1.4,0.1,2.7,0.3,3.8,1.3c0,0.3,0,0.6,0,0.9c-0.8,1.2-0.4,2.6-0.5,4
			c0,40.5,0,80.9,0,121.4c0,1.3-0.4,2.7,0.5,4c0,0.3,0,0.6,0,0.9c-4.3,2.1-9.1,1.9-13.7,2.1c-27.8,1.1-54.2,7.3-78.8,20.6
			c-1.3,0.7-2.6,1.5-4.2,1.3c-1.8-0.6-1.9-2.1-2.1-3.6c-0.1-1.3-0.1-2.7-0.1-4.1c0.3-11.3,0.4-22.5,0.2-33.8
			c-0.5-34.9-3.8-69.4-8.7-103.9c-1.4-10.1-2-20.3-2.5-30.6c-0.9-18.5-0.7-37-4.1-55.3c-4.4-23.5-15.8-43.7-28.8-63.3
			c-11.7-17.8-29.2-29-46.3-40.3c-18.5-12.3-38.2-22.3-58.4-31.6C912.7,316.8,910.5,316.4,909.9,313.9z"/>
		<path class="st0" d="M1062.8,771.1c-0.2,36.9-0.3,73.8-0.5,110.7c-0.2,33.6-0.1,67.2-0.8,100.8c-0.6,28.6-2.8,57.1-12,84.5
			c-13.1,38.9-38.9,66.8-74.8,85.9c-23.7,12.6-49.1,20.1-75.3,25.3c-26.5,5.3-53.3,7.5-80.1,9.1c-3.6,1-7.3-0.5-10.9,0.8
			c-0.9,0-1.8,0-2.7,0c-2.5-1-5-0.2-7.5-0.5c-2.1,0-4.3,0-6.4,0c-4.4-0.3-8.9,0.5-13.3-0.4c-0.1-1.5-0.3-3-0.3-4.5
			c0-40.7,0-81.3-0.1-122c0-3.7,1-4.4,4.5-4.3c24.8,0.6,49.7,0.3,74.3-3.2c10.6-1.5,20.9-4,30.5-8.8c13.5-6.8,18.5-19,21.3-32.7
			c3.4-17.1,3.4-34.5,2.5-51.7c-1.6-32.8-1.2-65.6-1.3-98.5c0-4.8,0-9.6,0-14.5c2.8,0.2,3,2.7,3.6,4.6c3.4,10.6,7.5,21,12,31.2
			c3.6,8.3,7.9,16.4,14.5,22.7c11.3,10.7,23,11.4,38.1,5c13.9-5.9,23-17.1,31.5-29c24.8-34.9,38.6-74.1,45.5-115.9
			c1.9-11.4,3.6-22.9,4.8-34.5c0.3-2.5-0.3-5.5,2.4-7.3c0.5,0.3,0.8,0.7,0.7,1.3C1062.8,740.6,1063.2,755.9,1062.8,771.1z"/>
		<path class="st0" d="M337.3,1187.5c-23.6-1.6-47.1-3.6-70.3-8.2c-33.3-6.5-65.1-16.9-93.2-36.5c-32.6-22.7-53-54.2-65.3-91.4
			c-10.2-30.8-13.2-62.6-11.9-94.7c2.7-73.2,2.2-146.3,2.3-219.5c0-2.7,0.3-5.4,0.5-8.1c-0.3-1.2-0.9-2.4,0.8-3.1
			c2.3,2.4,1.8,5.6,2.1,8.5c3.7,34.7,10.3,68.8,22,101.7c6.3,17.8,14.4,34.8,26.4,49.6c9.2,11.3,19.7,21.1,33.9,26.2
			c16.8,6.1,30.4,2.2,41-12.1c6.1-8.2,10.2-17.4,14-26.7c3.5-8.6,6.9-17.3,10.1-26.1c0.6-1.7,0.8-4,3.3-4.3
			c0.5,34.5-0.5,68.9-2.2,103.4c-1.1,21.9-1.4,43.9,3.2,65.6c5.1,24.2,15.9,35.1,40.3,39.9c27.7,5.5,55.7,5.2,83.7,5
			c5.8,0,5.8-0.2,5.8,5.6c0,40.2,0,80.5,0,120.7c0,1.8-0.2,3.6-0.4,5.4c-6,0-12.1,0-18.1,0c-3.3-1-6.6-0.2-9.9-0.5
			c-1.8,0-3.6,0-5.5,0c-1.6,0-3.2,0-4.7,0C342.6,1187.6,339.9,1188.1,337.3,1187.5z"/>
		<path class="st1" d="M0,529.9c1.5,1.3,0.9,3.1,0.9,4.7c0,40,0,80,0,120c0,1.6,0.6,3.3-0.9,4.7C0,616.1,0,573,0,529.9z"/>
		<path class="st1" d="M1162,659.2c-1.5-1.3-0.9-3.1-0.9-4.7c0-40,0-80,0-120c0-1.6-0.6-3.3,0.9-4.7C1162,573,1162,616.1,1162,659.2
			z"/>
		<path class="st2" d="M807.6,0.9c-9.7,0-19.4,0-29.1,0c0-0.3,0.1-0.6,0.1-0.9c9.6,0,19.3,0,28.9,0c0.3,0.2,0.4,0.4,0.3,0.6
			C807.7,0.8,807.7,0.9,807.6,0.9z"/>
		<path class="st3" d="M383.6,0.9c-6.1,0-12.2,0-18.3,0c-0.2-0.2-0.3-0.4-0.2-0.6c0.1-0.2,0.2-0.2,0.3-0.2c6,0,12.1,0,18.1,0
			c0.1,0.2,0.2,0.4,0.2,0.6C383.7,0.7,383.6,0.8,383.6,0.9z"/>
		<path class="st4" d="M778.5,1187.4c4.6,0,9.1,0,13.7,0c0.3,0.2,0.4,0.4,0.3,0.6c-0.1,0.2-0.2,0.3-0.3,0.3c-4.5,0-9,0-13.6,0
			c-0.1-0.2-0.2-0.4-0.2-0.6C778.4,1187.6,778.4,1187.5,778.5,1187.4z"/>
		<path class="st5" d="M365.3,0c0,0.3,0,0.6-0.1,0.8c-3.9-0.5-7.9,1.3-11.7-0.8C357.5,0,361.4,0,365.3,0z"/>
		<path class="st6" d="M340,0.8c0-0.3,0-0.5,0-0.8c3.6,0,7.2,0,10.9,0C347.3,1.8,343.6,0.7,340,0.8z"/>
		<path class="st7" d="M835.6,0c0,0.3,0,0.5,0,0.8c-3.6-0.1-7.4,1-10.9-0.8C828.3,0,831.9,0,835.6,0z"/>
		<path class="st8" d="M808.4,1188.2c3.5-1.8,7.2-0.6,10.9-0.8c0,0.3,0,0.5,0,0.8C815.7,1188.2,812,1188.2,808.4,1188.2z"/>
		<path class="st9" d="M355.3,1187.4c3.3,0.2,6.8-1,10,0.8c-3.3,0-6.6,0-9.9,0c-0.3-0.2-0.4-0.3-0.3-0.5
			C355.2,1187.5,355.2,1187.4,355.3,1187.4z"/>
		<path class="st9" d="M807.6,0.9c0-0.3,0-0.6,0-0.9c2.7,0,5.4,0,8.1,0c0.3,0.2,0.4,0.3,0.3,0.5c-0.1,0.2-0.2,0.3-0.2,0.3
			C813,0.9,810.3,0.9,807.6,0.9z"/>
		<path class="st10" d="M337.3,1187.5c2.7,0,5.4,0,8.1,0c0.3,0.2,0.4,0.3,0.3,0.5s-0.2,0.3-0.3,0.3c-2.7,0-5.4,0-8.1,0
			C337.3,1188,337.3,1187.7,337.3,1187.5z"/>
		<path class="st11" d="M815.7,0.8c0-0.3-0.1-0.5-0.1-0.8c2.4,0,4.8,0,7.2,0C820.7,2,818.1,0.4,815.7,0.8z"/>
		<path class="st12" d="M798.5,1187.4c2.4,0.4,5-1.1,7.2,0.8c-2.4,0-4.8,0-7.2,0c-0.3-0.2-0.4-0.4-0.3-0.6
			C798.3,1187.5,798.4,1187.4,798.5,1187.4z"/>
		<path class="st13" d="M798.5,1187.4c0,0.3-0.1,0.5-0.1,0.8c-2.1,0-4.2,0-6.3,0c0-0.3,0-0.6,0-0.9
			C794.3,1187.4,796.4,1187.4,798.5,1187.4z"/>
		<path class="st14" d="M355.3,1187.4c0.1,0.3,0.1,0.5,0.1,0.8c-1.8,0-3.6,0-5.4,0c-0.3-0.1-0.4-0.3-0.3-0.5s0.1-0.3,0.2-0.3
			C351.7,1187.5,353.5,1187.5,355.3,1187.4z"/>
		<path class="st15" d="M349.9,1187.5c0.1,0.3,0.1,0.5,0.1,0.8c-1.5,0-3,0-4.5,0c0-0.3,0-0.5,0-0.8
			C346.9,1187.5,348.4,1187.5,349.9,1187.5z"/>
		<path class="st16" d="M253.1,842.8c-3.3,5.6-4.7,12-7.1,17.9c-4.9,12-9.3,24.2-16.2,35.2c-5.9,9.4-13.1,17.2-24.7,19.6
			c-7.4,1.5-14.4,0-21.2-2.6c-17-6.5-29.3-18.7-39.3-33.4c-15-21.9-23.7-46.6-30.4-72c-7.1-26.7-11.3-53.9-13.9-81.3
			c-0.6-0.3,0.3-2.2-1.4-1.2c0.8-7.3-0.1-14.5-0.3-21.8c-0.1-5.1-0.8-10.1-1.6-15.1c1-1,0.6-2.3,0.5-3.4
			c-1.9-41.8-1.1-83.5,5.1-124.8c4.7-31.1,5.8-62.3,7.7-93.5c1.6-27,12.6-50.3,27-72.7c12.6-19.6,30.4-33.1,49.3-45.7
			c19.8-13.2,40.9-24.2,62.5-34.2c1.4-0.6,2.7-1.3,4-2c12.9-5.1,25.6-10.4,38.6-15.1c28-10.2,56.4-18.9,85.6-24.7
			c2.4-0.5,4.7-0.7,5.9-3.8c7.5-20.1,23-31.9,42.1-39.4c17.4-6.8,35.8-10.2,54.2-12.8c12.2-1.8,24.3-3.9,36.4-5.7
			c6.1-0.9,12.2-1.8,18.3-2.2c15.7-1.1,31.4-3.1,47.2-2.7c20.6,0.5,41.2,0.8,61.7,2.7c27.4,2.6,54.5,6.8,80.3,17
			c19.8,7.8,37.5,18.5,50.1,36.3c0.2,0.2,0.5,0.4,0.6,0.7c3,8.7,10.1,10.8,18.2,12.7c38.7,9.1,76.2,21.9,112.8,37.6
			c1.5,0.6,3.1,1,4.7,1.5c5.5,2.7,11,5.4,16.6,8.1c27.7,13.4,54.1,28.9,77.9,48.6c6.2,5.1,10.9,11.2,15.3,17.7
			c12.8,18.4,23.6,37.8,28.6,59.9c2.8,12.1,3.9,24.4,4,36.7c0.3,29.6,4.2,58.8,7.9,88.1c2.2,17.3,3.3,34.8,3.9,52.2
			c0.6,18.2,1.1,36.4,0.2,54.7c-0.1,1.4-0.6,3,0.6,4.3c-1.1,4.2-1.3,8.6-1.5,12.9c-0.3,7.6-0.3,15.2-0.4,22.8
			c-1.1,1.3-0.2,3.3-1.4,4.6c-3.9,37.5-10,74.5-24.5,109.6c-8.7,21-20.2,40.4-34.2,58.1c-9.3,11.7-20.7,20.5-35.9,23.2
			c-12.4,2.2-22.2-1.9-30.2-11c-5.5-6.3-9.3-13.6-12.7-21.2c-4.6-10.5-8.8-21.1-12.3-32c-0.5-1.4-0.6-3-2-3.9
			c-0.6-8.2-3.9-15.7-5.7-23.6c-4.9-20.7-10-41.4-15.3-62.1c-6.2-24-13.4-47.8-25.2-69.8c-2-3.7-3.9-4.8-8.1-3.6
			c-18.3,5.1-37.3,7.7-56.4,10.1c-12,1.5-24.1,3.4-35.6,7.6c-17.9,6.4-29.7,19.4-38.2,35.9c-9.5,18.4-15,38-18,58.3
			C702,835,695.9,869.6,687.9,904c-7.8,33.5-15.4,67-26.8,99.5c-7.6,21.8-15.3,43.7-26.2,64.3c-7.5,14.1-16.8,26.9-31.3,34.6
			c-19.6,10.4-37.3,10.6-55-6c-13.3-12.4-22-27.8-29.4-44c-22.2-48.2-35-99.3-47.1-150.7c-5.2-21.9-8.5-44.1-11.9-66.4
			c-4.1-26.4-7.8-52.9-17.1-78.1c-5.2-14.2-12.1-27.5-22.5-38.8c-8.3-9.1-18.7-14-30.4-16.5c-21.1-4.4-42.3-8.5-63.5-12.6
			c-7.6-1.4-15.3-1.5-22.9-1.1c-3.8,0.2-6.2,1.7-7.3,5.8c-8.2,29.4-16.6,58.7-25,88c-5.3,18.3-10.7,36.6-16.8,54.7
			C253.8,838.6,253.1,840.6,253.1,842.8z"/>
		<path class="st17" d="M99.3,237.6c0-1.1,0.1-2.2,0.1-3.3c1.5,1.1,0.9,2.8,0.9,4.2c0,88.9,0,177.8,0,266.7c0,1,0.3,2.1-0.5,3.1
			c-0.8-1.6-0.4-3.3-0.4-4.9c0-86.5,0-173,0-259.5C99.5,241.8,99.4,239.7,99.3,237.6z"/>
		<path class="st18" d="M1062.8,771.1c0-14.1,0-28.2-0.1-42.3c0-1.5-0.1-3-0.1-4.5c-0.5-1.3-1.2-2.6,0.7-3.4c0,16.3,0.1,32.7,0.1,49
			C1063.3,770.3,1062.9,770.7,1062.8,771.1z"/>
		<path class="st19" d="M1063.2,720.9c-1,1-0.1,2.4-0.7,3.4c-0.3,0-0.5,0.1-0.8,0.1c0.1-1.7-0.9-3.7,1.4-4.6
			C1063.2,720.1,1063.2,720.5,1063.2,720.9z"/>
		<path class="st20" d="M98.8,725.1c0.4-0.5,0.8-1.1,1.1-1.6c0.7,0.9,0.4,1.9,0.3,2.9c-0.3,0.9-0.6,1.8-0.9,2.7
			C98.4,727.8,98.9,726.4,98.8,725.1z"/>
		<path class="st0" d="M301.5,613.3c-62.3-0.2-111.8-50.2-111.5-112.6c0.2-60.9,50.7-110.8,111.8-110.6
			c62.3,0.2,111.7,50.4,111.5,113.2C413,563.8,362.5,613.5,301.5,613.3z"/>
		<path class="st0" d="M863.1,457.9c-18.4,0-33.5-15.1-33.5-33.6c0-19.3,15.1-34.4,34.3-34.3c18.7,0.1,33.7,15.1,33.8,33.9
			C897.7,442.9,882.5,457.9,863.1,457.9z"/>
		<path class="st0" d="M863.5,613.5c-19,0-34-15.1-34-34.2c0.1-18.8,15.1-33.8,33.9-33.8c19,0,34.2,15,34.2,33.9
			C897.7,598.3,882.5,613.5,863.5,613.5z"/>
		<path class="st0" d="M785,535.7c-19.1,0-34-15-33.9-34.1c0-19,15.1-33.9,34.2-33.9c18.7,0,33.7,15.2,33.7,33.9
			C819.1,520.7,804.1,535.7,785,535.7z"/>
		<path class="st0" d="M939,535.7c-18.8,0-33.8-15-33.8-33.8c0-19,15.1-34.1,34.1-34c18.6,0,34.1,15.5,33.9,33.9
			C973.1,520.8,958.1,535.7,939,535.7z"/>
		<path class="st16" d="M319.4,458.5c0,6.9,0.3,13.9-0.1,20.8c-0.2,4,1.3,4.6,4.9,4.6c14-0.2,28,0,42-0.2c3.2,0,4.1,0.8,4,4
			c-0.2,9.2-0.3,18.4,0,27.6c0.1,3.6-1.2,4.2-4.4,4.1c-14-0.2-28,0-42-0.1c-3.3,0-4.5,0.9-4.4,4.3c0.2,14.2,0,28.3,0.1,42.5
			c0,3.3-0.5,4.7-4.3,4.6c-9-0.3-18.1-0.2-27.1,0c-3.4,0.1-4.4-1-4.4-4.4c0.2-14-0.1-28,0.2-42c0.1-4.1-1.3-5-5.2-5
			c-13.9,0.2-27.7,0-41.6,0.1c-3.1,0-4.2-0.7-4.1-4c0.2-9.3,0.2-18.7,0-28c-0.1-3,0.9-3.8,3.8-3.7c14.2,0.1,28.3,0,42.5,0.1
			c3.4,0,4.6-0.7,4.6-4.4c-0.2-14.2,0-28.3-0.2-42.5c0-3.2,0.9-4,4-4c9.3,0.2,18.7,0.2,28,0c3-0.1,3.8,0.9,3.7,3.8
			C319.3,444,319.4,451.3,319.4,458.5z"/>
	</g>
</g>
</svg>
