<?xml version="1.0" encoding="utf-8"?>
<!-- Generator: Adobe Illustrator 19.0.0, SVG Export Plug-In . SVG Version: 6.00 Build 0)  -->
<svg version="1.1" id="Layer_1" xmlns="http://www.w3.org/2000/svg" xmlns:xlink="http://www.w3.org/1999/xlink" x="0px" y="0px"
	 viewBox="0 0 637.7 637.8" style="enable-background:new 0 0 637.7 637.8;" xml:space="preserve">
<style type="text/css">
	.st0{display:none;fill:#F6F6F6;}
	.st1{display:none;}
	.st2{display:inline;fill:none;stroke:#8ddafd;stroke-width:5;stroke-linecap:round;stroke-linejoin:round;stroke-miterlimit:10;}
	.st3{display:none;fill:none;stroke:#8ddafd;stroke-width:5;stroke-linecap:round;stroke-linejoin:round;stroke-miterlimit:10;}
	.st4{opacity:0.3;}
	.st5{fill:none;stroke:#8ddafd;stroke-miterlimit:10;}
</style>
<rect x="0.6" y="0" class="st0" width="636.6" height="636.6"/>
<g class="st1">
	<line class="st2" x1="232.2" y1="145" x2="216.9" y2="130.7"/>
	<line class="st2" x1="217.4" y1="145.5" x2="231.7" y2="130.3"/>
</g>
<g class="st1">
	<line class="st2" x1="249.7" y1="364.5" x2="234.5" y2="350.2"/>
	<line class="st2" x1="234.9" y1="364.9" x2="249.2" y2="349.7"/>
</g>
<g class="st1">
	<line class="st2" x1="64.1" y1="487.1" x2="48.9" y2="472.8"/>
	<line class="st2" x1="49.3" y1="487.5" x2="63.6" y2="472.3"/>
</g>
<g class="st1">
	<line class="st2" x1="57.5" y1="124.2" x2="42.2" y2="109.8"/>
	<line class="st2" x1="42.7" y1="124.6" x2="57" y2="109.4"/>
</g>
<g class="st1">
	<line class="st2" x1="599.9" y1="144.7" x2="584.6" y2="130.4"/>
	<line class="st2" x1="585.1" y1="145.1" x2="599.4" y2="129.9"/>
</g>
<g class="st1">
	<line class="st2" x1="419.9" y1="222.5" x2="404.7" y2="208.2"/>
	<line class="st2" x1="405.2" y1="222.9" x2="419.5" y2="207.7"/>
</g>
<g class="st1">
	<line class="st2" x1="494.3" y1="392.3" x2="479" y2="378"/>
	<line class="st2" x1="479.5" y1="392.8" x2="493.8" y2="377.5"/>
</g>
<g class="st1">
	<line class="st2" x1="482.5" y1="530.6" x2="467.2" y2="516.3"/>
	<line class="st2" x1="467.7" y1="531.1" x2="482" y2="515.8"/>
</g>
<polygon class="st3" points="345.5,167.9 335,149.8 324.5,167.9 314.1,186.1 335,186.1 356,186.1 "/>
<polygon class="st3" points="310.8,389.9 300.3,371.8 289.8,389.9 279.4,408.1 300.3,408.1 321.3,408.1 "/>
<polygon class="st3" points="431.1,458.1 420.6,439.9 410.2,458.1 399.7,476.3 420.7,476.3 441.6,476.3 "/>
<polygon class="st3" points="500.4,318.7 505.8,298.4 485.5,303.9 465.3,309.3 480.1,324.1 494.9,338.9 "/>
<polygon class="st3" points="155.4,83.4 160.9,63.1 140.6,68.6 120.3,74 135.2,88.8 150,103.6 "/>
<polygon class="st3" points="141.1,521.3 146.5,501 126.2,506.5 106,511.9 120.8,526.7 135.7,541.6 "/>
<polygon class="st3" points="521.6,106 539.8,95.5 521.6,85.1 503.4,74.6 503.4,95.5 503.5,116.5 "/>
<polygon class="st3" points="140.6,315.6 158.8,305.1 140.6,294.6 122.4,284.1 122.4,305.1 122.5,326.1 "/>
<circle class="st3" cx="365.1" cy="281.2" r="15.9"/>
<circle class="st3" cx="284.6" cy="103.6" r="15.9"/>
<circle class="st3" cx="294.8" cy="573.3" r="15.9"/>
<path class="st3" d="M353.3,549.5c0-8.8,7.1-15.9,15.9-15.9c8.8,0,15.9,7.1,15.9,15.9"/>
<path class="st3" d="M226.3,305.1c0-8.8,7.1-15.9,15.9-15.9s15.9,7.1,15.9,15.9"/>
<path class="st3" d="M58.9,175.9c0-8.8,7.1-15.9,15.8-15.9c8.7,0,15.8,7.1,15.8,15.9"/>
<path class="st3" d="M460,202c-8.8,0-15.9-7.1-15.9-15.8c0-8.7,7.1-15.8,15.9-15.8"/>
<path class="st3" d="M76.8,573.2c-8.8,0-15.9-7.1-15.9-15.8c0-8.7,7.1-15.8,15.9-15.8"/>
<path class="st3" d="M247.6,67.1c-8.8,0-15.9-7.1-15.9-15.8c0-8.7,7.1-15.8,15.9-15.8"/>
<circle class="st3" cx="68.8" cy="405.9" r="15.9"/>
<circle class="st3" cx="559.6" cy="424" r="15.9"/>
<rect x="531.5" y="170.3" class="st3" width="31.7" height="31.7"/>
<rect x="173.6" y="186.1" class="st3" width="31.7" height="31.7"/>
<rect x="172" y="388.2" class="st3" width="31.7" height="31.7"/>
<rect x="531.5" y="541.6" class="st3" width="31.7" height="31.7"/>
<rect x="400.1" y="35.5" class="st3" width="31.7" height="31.7"/>
<g class="st1">
	<path class="st2" d="M354.7,357.3c-6.9,0-5.7-12.3-14.5-12.3"/>
	<path class="st2" d="M383.7,357.3c-6.9,0-5.7-12.3-14.5-12.3"/>
	<path class="st2" d="M354.7,357.3c6.9,0,5.7-12.3,14.5-12.3"/>
	<path class="st2" d="M398.3,345.1"/>
	<path class="st2" d="M383.7,357.3c6.9,0,5.7-12.3,14.5-12.3"/>
</g>
<g class="st1">
	<path class="st2" d="M437.5,585.6c-6.9,0-5.7-12.3-14.5-12.3"/>
	<path class="st2" d="M466.5,585.6c-6.9,0-5.7-12.3-14.5-12.3"/>
	<path class="st2" d="M437.5,585.6c6.9,0,5.7-12.3,14.5-12.3"/>
	<path class="st2" d="M481.1,573.3"/>
	<path class="st2" d="M466.5,585.6c6.9,0,5.7-12.3,14.5-12.3"/>
</g>
<g class="st1">
	<path class="st2" d="M477.1,256.5c-6.9,0-5.7-12.3-14.5-12.3"/>
	<path class="st2" d="M506.2,256.5c-6.9,0-5.7-12.3-14.5-12.3"/>
	<path class="st2" d="M477.1,256.5c6.9,0,5.7-12.3,14.5-12.3"/>
	<path class="st2" d="M520.7,244.3"/>
	<path class="st2" d="M506.2,256.5c6.9,0,5.7-12.3,14.5-12.3"/>
</g>
<g class="st1">
	<path class="st2" d="M72.8,241.7c-6.9,0-5.7-12.3-14.5-12.3"/>
	<path class="st2" d="M101.9,241.7c-6.9,0-5.7-12.3-14.5-12.3"/>
	<path class="st2" d="M72.8,241.7c6.9,0,5.7-12.3,14.5-12.3"/>
	<path class="st2" d="M116.4,229.4"/>
	<path class="st2" d="M101.9,241.7c6.9,0,5.7-12.3,14.5-12.3"/>
</g>
<g class="st1">
	<path class="st2" d="M357.1,77.6c0,6.9-12.3,5.7-12.3,14.5"/>
	<path class="st2" d="M357.1,48.6c0,6.9-12.3,5.7-12.3,14.5"/>
	<path class="st2" d="M357.1,77.6c0-6.9-12.3-5.7-12.3-14.5"/>
	<path class="st2" d="M344.8,34"/>
	<path class="st2" d="M357.1,48.6c0-6.9-12.3-5.7-12.3-14.5"/>
</g>
<g class="st1">
	<path class="st2" d="M267.9,229.7c0,6.9-12.3,5.7-12.3,14.5"/>
	<path class="st2" d="M267.9,200.6c0,6.9-12.3,5.7-12.3,14.5"/>
	<path class="st2" d="M267.9,229.7c0-6.9-12.3-5.7-12.3-14.5"/>
	<path class="st2" d="M255.7,186.1"/>
	<path class="st2" d="M267.9,200.6c0-6.9-12.3-5.7-12.3-14.5"/>
</g>
<g class="st1">
	<path class="st2" d="M509.6,472.6c0,6.9-12.3,5.7-12.3,14.5"/>
	<path class="st2" d="M509.6,443.6c0,6.9-12.3,5.7-12.3,14.5"/>
	<path class="st2" d="M509.6,472.6c0-6.9-12.3-5.7-12.3-14.5"/>
	<path class="st2" d="M497.3,429"/>
	<path class="st2" d="M509.6,443.6c0-6.9-12.3-5.7-12.3-14.5"/>
</g>
<g class="st1">
	<path class="st2" d="M209.8,495.6c0,6.9-12.3,5.7-12.3,14.5"/>
	<path class="st2" d="M209.8,466.5c0,6.9-12.3,5.7-12.3,14.5"/>
	<path class="st2" d="M209.8,495.6c0-6.9-12.3-5.7-12.3-14.5"/>
	<path class="st2" d="M197.5,451.9"/>
	<path class="st2" d="M209.8,466.5c0-6.9-12.3-5.7-12.3-14.5"/>
</g>
<line class="st3" x1="389.5" y1="389.9" x2="425.4" y2="389.9"/>
<line class="st3" x1="36.9" y1="286.3" x2="72.7" y2="286.3"/>
<line class="st3" x1="392.2" y1="119.6" x2="428" y2="119.6"/>
<line class="st3" x1="533.6" y1="38.6" x2="569.4" y2="38.6"/>
<line class="st3" x1="179.9" y1="573.2" x2="215.7" y2="573.2"/>
<line class="st3" x1="272" y1="503.9" x2="297.3" y2="478.6"/>
<line class="st3" x1="62" y1="64" x2="87.4" y2="38.6"/>
<line class="st3" x1="551.5" y1="324" x2="576.9" y2="298.6"/>
<g class="st4">
	<polygon class="st5" points="368.3,181.3 357.8,163.1 347.4,181.3 336.9,199.5 357.9,199.5 378.8,199.4 	"/>
	<polygon class="st5" points="333.6,403.3 323.1,385.1 312.6,403.3 302.2,421.5 323.1,421.5 344.1,421.4 	"/>
	<polygon class="st5" points="454,471.5 443.5,453.3 433,471.5 422.5,489.6 443.5,489.6 464.5,489.6 	"/>
	<polygon class="st5" points="523.2,332 528.6,311.8 508.3,317.2 488.1,322.7 502.9,337.5 517.8,352.3 	"/>
	<polygon class="st5" points="178.3,96.7 183.7,76.5 163.4,81.9 143.2,87.4 158,102.2 172.8,117 	"/>
	<polygon class="st5" points="163.9,534.7 169.3,514.4 149.1,519.8 128.8,525.3 143.6,540.1 158.5,554.9 	"/>
	<polygon class="st5" points="544.4,119.4 562.6,108.9 544.4,98.4 526.2,87.9 526.3,108.9 526.3,129.9 	"/>
	<polygon class="st5" points="163.4,328.9 181.6,318.4 163.4,308 145.2,297.5 145.3,318.5 145.3,339.4 	"/>
	<circle class="st5" cx="387.9" cy="294.6" r="15.9"/>
	<circle class="st5" cx="307.5" cy="117" r="15.9"/>
	<circle class="st5" cx="317.6" cy="586.7" r="15.9"/>
	<path class="st5" d="M376.1,562.9c0-8.8,7.1-15.9,15.9-15.9c8.8,0,15.9,7.1,15.9,15.9"/>
	<path class="st5" d="M249.1,318.5c0-8.8,7.1-15.9,15.9-15.9c8.8,0,15.9,7.1,15.9,15.9"/>
	<path class="st5" d="M81.7,189.3c0-8.8,7.1-15.9,15.8-15.9c8.7,0,15.8,7.1,15.8,15.9"/>
	<path class="st5" d="M482.8,215.3c-8.8,0-15.9-7.1-15.9-15.8c0-8.7,7.1-15.8,15.9-15.8"/>
	<path class="st5" d="M99.6,586.6c-8.8,0-15.9-7.1-15.9-15.8c0-8.7,7.1-15.8,15.9-15.8"/>
	<path class="st5" d="M270.4,80.5c-8.8,0-15.9-7.1-15.9-15.8s7.1-15.8,15.9-15.8"/>
	<circle class="st5" cx="91.7" cy="419.2" r="15.9"/>
	<circle class="st5" cx="582.4" cy="437.4" r="15.9"/>
	<rect x="554.3" y="183.6" class="st5" width="31.7" height="31.7"/>
	<rect x="196.4" y="199.5" class="st5" width="31.7" height="31.7"/>
	<rect x="194.8" y="401.6" class="st5" width="31.7" height="31.7"/>
	<rect x="554.3" y="554.9" class="st5" width="31.7" height="31.7"/>
	<rect x="423" y="48.8" class="st5" width="31.7" height="31.7"/>
	<g>
		<path class="st5" d="M377.5,370.7c-6.9,0-5.7-12.3-14.5-12.3"/>
		<path class="st5" d="M406.5,370.7c-6.9,0-5.7-12.3-14.5-12.3"/>
		<path class="st5" d="M377.5,370.7c6.9,0,5.7-12.3,14.5-12.3"/>
		<path class="st5" d="M421.1,358.4"/>
		<path class="st5" d="M406.5,370.7c6.9,0,5.7-12.3,14.5-12.3"/>
	</g>
	<g>
		<path class="st5" d="M460.3,598.9c-6.9,0-5.7-12.3-14.5-12.3"/>
		<path class="st5" d="M489.4,598.9c-6.9,0-5.7-12.3-14.5-12.3"/>
		<path class="st5" d="M460.3,598.9c6.9,0,5.7-12.3,14.5-12.3"/>
		<path class="st5" d="M503.9,586.7"/>
		<path class="st5" d="M489.4,598.9c6.9,0,5.7-12.3,14.5-12.3"/>
	</g>
	<g>
		<path class="st5" d="M499.9,269.9c-6.9,0-5.7-12.3-14.5-12.3"/>
		<path class="st5" d="M529,269.9c-6.9,0-5.7-12.3-14.5-12.3"/>
		<path class="st5" d="M499.9,269.9c6.9,0,5.7-12.3,14.5-12.3"/>
		<path class="st5" d="M543.5,257.6"/>
		<path class="st5" d="M529,269.9c6.9,0,5.7-12.3,14.5-12.3"/>
	</g>
	<g>
		<path class="st5" d="M95.7,255.1c-6.9,0-5.7-12.3-14.5-12.3"/>
		<path class="st5" d="M124.7,255.1c-6.9,0-5.7-12.3-14.5-12.3"/>
		<path class="st5" d="M95.7,255.1c6.9,0,5.7-12.3,14.5-12.3"/>
		<path class="st5" d="M139.3,242.8"/>
		<path class="st5" d="M124.7,255.1c6.9,0,5.7-12.3,14.5-12.3"/>
	</g>
	<g>
		<path class="st5" d="M379.9,91c0,6.9-12.3,5.7-12.3,14.5"/>
		<path class="st5" d="M379.9,61.9c0,6.9-12.3,5.7-12.3,14.5"/>
		<path class="st5" d="M379.9,91c0-6.9-12.3-5.7-12.3-14.5"/>
		<path class="st5" d="M367.6,47.4"/>
		<path class="st5" d="M379.9,61.9c0-6.9-12.3-5.7-12.3-14.5"/>
	</g>
	<g>
		<path class="st5" d="M290.7,243.1c0,6.9-12.3,5.7-12.3,14.5"/>
		<path class="st5" d="M290.7,214c0,6.9-12.3,5.7-12.3,14.5"/>
		<path class="st5" d="M290.7,243.1c0-6.9-12.3-5.7-12.3-14.5"/>
		<path class="st5" d="M278.5,199.5"/>
		<path class="st5" d="M290.7,214c0-6.9-12.3-5.7-12.3-14.5"/>
	</g>
	<g>
		<path class="st5" d="M532.4,486c0,6.9-12.3,5.7-12.3,14.5"/>
		<path class="st5" d="M532.4,456.9c0,6.9-12.3,5.7-12.3,14.5"/>
		<path class="st5" d="M532.4,486c0-6.9-12.3-5.7-12.3-14.5"/>
		<path class="st5" d="M520.1,442.4"/>
		<path class="st5" d="M532.4,456.9c0-6.9-12.3-5.7-12.3-14.5"/>
	</g>
	<g>
		<path class="st5" d="M232.6,508.9c0,6.9-12.3,5.7-12.3,14.5"/>
		<path class="st5" d="M232.6,479.8c0,6.9-12.3,5.7-12.3,14.5"/>
		<path class="st5" d="M232.6,508.9c0-6.9-12.3-5.7-12.3-14.5"/>
		<path class="st5" d="M220.3,465.3"/>
		<path class="st5" d="M232.6,479.8c0-6.9-12.3-5.7-12.3-14.5"/>
	</g>
	<line class="st5" x1="412.3" y1="403.3" x2="448.2" y2="403.3"/>
	<line class="st5" x1="59.7" y1="299.6" x2="95.6" y2="299.6"/>
	<line class="st5" x1="415" y1="132.9" x2="450.9" y2="132.9"/>
	<line class="st5" x1="556.4" y1="52" x2="592.2" y2="52"/>
	<line class="st5" x1="202.7" y1="586.6" x2="238.5" y2="586.6"/>
	<line class="st5" x1="294.8" y1="517.3" x2="320.1" y2="491.9"/>
	<line class="st5" x1="84.8" y1="77.3" x2="110.2" y2="52"/>
	<line class="st5" x1="574.3" y1="337.3" x2="599.7" y2="312"/>
</g>
<path class="st3" d="M363.4,474.9c-2.9,1.8-6.8,1-8.6-2c-1.8-2.9-1-6.8,2-8.6c2.9-1.8,6.8-1,8.6,2
	C367.3,469.1,366.4,473,363.4,474.9z"/>
<path class="st3" d="M314.1,302.4c-2.9,1.8-6.8,1-8.6-2c-1.8-2.9-1-6.8,2-8.6c2.9-1.8,6.8-1,8.6,2
	C317.9,296.7,317,300.6,314.1,302.4z"/>
<path class="st3" d="M88.2,355.5c-2.9,1.8-6.8,1-8.6-2c-1.8-2.9-1-6.8,2-8.6c2.9-1.8,6.8-1,8.6,2C92,349.8,91.1,353.6,88.2,355.5z"
	/>
<path class="st3" d="M152.4,158.2c-2.9,1.8-6.8,1-8.6-2c-1.8-2.9-1-6.8,2-8.6c2.9-1.8,6.8-1,8.6,2
	C156.2,152.5,155.3,156.3,152.4,158.2z"/>
<path class="st3" d="M497.2,155.1c-2.9,1.8-6.8,1-8.6-2c-1.8-2.9-1-6.8,2-8.6c2.9-1.8,6.8-1,8.6,2
	C501,149.4,500.1,153.2,497.2,155.1z"/>
<path class="st3" d="M585.7,378.4c-2.9,1.8-6.8,1-8.6-2c-1.8-2.9-1-6.8,2-8.6c2.9-1.8,6.8-1,8.6,2
	C589.5,372.7,588.6,376.5,585.7,378.4z"/>
</svg>
