<?xml version="1.0" standalone="no"?>
<!DOCTYPE svg PUBLIC "-//W3C//DTD SVG 20010904//EN"
 "http://www.w3.org/TR/2001/REC-SVG-20010904/DTD/svg10.dtd">
<svg version="1.0" xmlns="http://www.w3.org/2000/svg"
 width="1024.000000pt" height="1024.000000pt" viewBox="0 0 1024.000000 1024.000000"
 preserveAspectRatio="xMidYMid meet">
<metadata>
Created by potrace 1.15, written by Peter Selinger 2001-2017
</metadata>
<g transform="translate(0.000000,1024.000000) scale(0.100000,-0.100000)"
fill="#000000" stroke="none">
<path d="M4770 9914 c-590 -52 -1086 -176 -1595 -398 -736 -322 -1419 -867
-1905 -1521 -518 -695 -818 -1455 -927 -2345 -26 -209 -26 -851 0 -1060 84
-689 279 -1286 603 -1852 716 -1249 1941 -2109 3354 -2352 309 -54 408 -61
820 -61 412 0 511 7 820 61 838 144 1593 494 2265 1048 154 127 474 447 601
601 617 748 971 1576 1091 2555 26 209 26 851 0 1060 -84 689 -279 1286 -603
1852 -716 1249 -1941 2109 -3354 2352 -288 50 -395 58 -770 61 -195 1 -375 1
-400 -1z m652 -243 c2 -4 50 -11 108 -15 289 -17 500 -55 859 -157 162 -45
443 -141 466 -159 6 -4 51 -24 100 -45 142 -58 187 -80 378 -186 181 -101 258
-147 267 -158 3 -4 37 -27 75 -52 306 -200 674 -527 922 -819 77 -91 299 -387
335 -447 29 -47 43 -68 49 -73 3 -3 31 -48 61 -100 117 -201 202 -365 248
-478 26 -64 57 -137 69 -162 24 -53 99 -254 106 -284 2 -12 24 -91 49 -176 74
-256 155 -664 141 -710 -3 -10 -1 -21 5 -25 6 -3 10 -23 10 -43 -2 -122 0
-161 10 -167 13 -8 14 -587 1 -600 -5 -6 -12 -54 -15 -108 -2 -55 -7 -101 -10
-104 -2 -3 -2 -11 1 -19 6 -17 -30 -251 -63 -404 -57 -260 -162 -605 -232
-760 -13 -30 -46 -108 -72 -173 -27 -65 -78 -171 -113 -235 -36 -64 -79 -143
-96 -174 -16 -31 -52 -90 -78 -131 -233 -360 -428 -602 -684 -852 -236 -230
-414 -372 -749 -596 -100 -67 -458 -260 -557 -301 -54 -21 -116 -47 -138 -57
-84 -38 -113 -50 -210 -85 -121 -43 -410 -125 -565 -160 -218 -50 -367 -71
-565 -82 -55 -3 -104 -10 -110 -15 -12 -12 -588 -12 -600 0 -6 5 -55 12 -110
15 -140 7 -203 14 -336 36 -319 54 -774 184 -989 283 -30 14 -99 43 -153 65
-54 23 -153 71 -220 108 -67 37 -142 78 -167 92 -126 68 -298 183 -495 330
-376 282 -762 692 -1014 1077 -25 39 -49 72 -53 73 -5 2 -8 10 -8 17 0 7 -4
15 -8 17 -8 3 -112 171 -112 180 0 3 -35 68 -78 145 -43 78 -98 190 -121 249
-24 59 -56 135 -71 168 -44 98 -112 288 -126 352 -1 7 -18 67 -37 135 -85 297
-131 554 -143 809 -3 58 -10 107 -15 108 -12 5 -12 589 0 594 5 2 12 50 15
108 16 286 55 498 157 859 66 237 107 348 231 631 6 14 12 31 14 37 4 22 205
392 245 451 16 24 29 47 29 53 0 5 3 9 8 9 4 0 12 8 17 19 44 84 258 371 396
531 342 398 807 770 1279 1024 136 74 308 156 324 156 3 0 43 17 88 38 232
108 669 234 1006 292 127 21 182 27 342 36 58 3 107 10 108 15 5 12 589 12
594 0z"/>
<path d="M4639 9594 c-134 -15 -508 -78 -559 -94 -45 -14 -43 -14 -185 -54
-257 -74 -454 -146 -635 -233 -187 -90 -353 -175 -380 -193 -14 -10 -41 -26
-60 -36 -48 -26 -274 -177 -278 -186 -2 -5 -9 -8 -16 -8 -34 0 -355 -269 -549
-460 -266 -260 -426 -454 -612 -740 -288 -442 -476 -866 -600 -1350 -2 -8 -4
-17 -5 -20 -1 -3 -2 -9 -1 -14 1 -4 -3 -13 -8 -20 -13 -15 -52 -212 -87 -436
-25 -162 -27 -203 -31 -565 -4 -313 -2 -418 11 -534 25 -228 87 -578 113 -641
3 -8 7 -17 8 -20 1 -3 4 -12 8 -20 3 -8 15 -53 27 -100 45 -177 179 -542 224
-613 8 -12 33 -63 54 -113 51 -116 159 -308 251 -446 39 -60 71 -112 71 -118
0 -5 5 -10 10 -10 6 0 10 -4 10 -10 0 -12 75 -122 108 -157 14 -15 38 -45 54
-67 69 -96 238 -282 390 -431 140 -139 202 -193 383 -341 77 -63 142 -112 167
-125 15 -8 66 -40 113 -72 206 -140 319 -203 605 -340 202 -97 415 -176 625
-233 50 -13 101 -29 115 -34 14 -6 34 -12 45 -15 11 -2 45 -11 75 -19 79 -22
392 -73 550 -91 186 -20 764 -21 949 0 217 24 569 87 631 112 19 8 17 7 140
42 240 68 438 141 640 238 275 131 383 191 583 324 48 33 92 59 96 59 5 0 11
7 15 15 3 8 12 15 19 15 13 0 39 19 176 128 216 171 478 421 644 616 56 65
104 123 106 128 4 11 6 14 90 113 28 33 54 70 57 82 3 12 12 24 20 27 8 3 14
10 14 16 0 5 37 65 81 132 99 149 204 335 260 460 23 51 48 102 55 113 20 32
105 236 121 290 7 28 18 59 23 70 19 45 61 176 80 255 12 47 24 92 27 100 4 8
7 17 8 20 1 3 5 12 8 20 27 65 88 414 113 642 22 200 15 867 -10 1028 -35 223
-67 407 -82 460 -8 30 -16 60 -17 65 -2 6 -5 15 -9 20 -3 6 -10 28 -14 50 -10
48 -9 46 -17 65 -3 8 -11 35 -17 60 -34 136 -176 516 -216 577 -8 13 -32 63
-53 111 -52 118 -160 309 -258 457 -44 66 -82 125 -84 130 -12 29 -52 85 -60
85 -5 0 -9 5 -9 11 0 24 -257 327 -415 488 -148 151 -377 359 -407 370 -5 2
-22 15 -38 30 -52 49 -118 97 -300 217 -80 53 -146 96 -148 95 -1 -1 -26 14
-55 32 -103 65 -462 242 -612 300 -118 46 -285 101 -415 138 -58 16 -109 31
-115 33 -5 1 -35 10 -65 20 -72 22 -419 82 -590 101 -174 19 -791 19 -961 -1z
m281 -2190 c0 -621 -4 -1014 -9 -1012 -12 4 -346 313 -484 448 -59 58 -113
106 -120 108 -7 1 -53 -37 -103 -86 -84 -84 -319 -301 -356 -331 -17 -13 -18
33 -18 938 l0 951 545 0 545 0 0 -1016z m1520 -991 l0 -1436 -22 19 c-40 34
-45 38 -99 89 -30 28 -148 138 -264 245 -115 106 -321 297 -457 423 l-248 229
0 934 0 934 545 0 545 0 0 -1437z m1609 225 l-1 -493 -226 -208 c-301 -275
-297 -272 -447 -412 -240 -224 -405 -375 -410 -375 -3 0 -5 446 -5 990 l0 990
545 0 545 0 -1 -492z m-3429 -191 l300 -278 0 -1494 0 -1495 -545 0 -545 0 0
1563 1 1562 107 97 c59 53 163 149 232 212 69 64 131 115 137 114 7 -2 148
-128 313 -281z m-1170 -161 l0 -125 -407 -374 c-225 -206 -467 -429 -540 -495
-72 -67 -134 -122 -137 -122 -3 0 -6 279 -6 620 l0 620 545 0 545 0 0 -124z
m0 -1721 l0 -1385 -545 0 -545 0 0 889 c0 522 4 891 9 893 8 3 100 86 311 283
41 39 124 115 185 170 60 55 141 129 180 165 39 36 119 110 179 165 61 55 135
123 165 152 31 29 57 53 59 53 1 0 2 -623 2 -1385z m4600 -10 l0 -1375 -545 0
-545 0 1 878 0 877 251 230 c137 127 296 273 352 325 248 231 476 440 481 440
3 0 5 -619 5 -1375z m-2510 1040 c36 -34 187 -173 335 -310 149 -136 322 -296
385 -355 64 -59 130 -120 148 -135 l32 -27 0 -794 0 -794 -545 0 -545 0 0
1297 0 1296 63 -58 c34 -32 91 -86 127 -120z m-2532 -2691 c124 -27 210 -93
258 -197 27 -57 29 -71 29 -177 0 -110 -2 -118 -33 -182 -79 -160 -233 -225
-507 -214 -77 3 -150 8 -162 12 l-23 6 0 378 0 378 63 6 c157 15 275 12 375
-10z m4772 -59 l0 -75 -185 0 -185 0 0 -75 0 -75 165 0 165 0 0 -75 0 -75
-165 0 -165 0 0 -90 0 -90 200 0 200 0 0 -75 0 -75 -295 0 -295 0 0 390 0 390
280 0 280 0 0 -75z m-3310 -325 l0 -390 -95 0 -95 0 0 390 0 390 95 0 95 0 0
-390z m1235 373 c4 -10 24 -65 45 -123 71 -197 161 -420 170 -420 8 0 110 251
185 458 l37 102 99 0 c54 0 99 -2 99 -5 0 -25 -189 -476 -284 -677 l-46 -98
-94 0 -93 0 -73 158 c-99 212 -186 421 -246 585 l-13 37 103 0 c90 0 105 -2
111 -17z"/>
<path d="M4271 4103 c-72 -145 -144 -314 -272 -636 l-19 -48 62 3 62 3 37 95
36 95 190 3 190 2 38 -100 38 -100 63 0 c35 0 64 2 64 5 0 22 -233 570 -306
718 l-28 57 -53 0 -53 0 -49 -97z m172 -198 c35 -83 67 -160 71 -172 l7 -23
-155 0 -155 0 53 128 c88 208 100 232 108 224 4 -4 36 -75 71 -157z"/>
<path d="M2603 4193 l-33 -4 0 -379 0 -379 48 -7 c86 -14 282 -9 349 9 130 34
212 98 259 200 27 57 29 71 29 177 0 103 -3 121 -26 170 -35 76 -77 121 -147
158 -93 50 -158 62 -312 60 -74 0 -150 -3 -167 -5z m358 -107 c111 -40 172
-134 173 -266 1 -98 -18 -160 -65 -214 -60 -67 -120 -89 -261 -94 l-118 -4 0
302 0 303 113 -6 c67 -3 131 -11 158 -21z"/>
<path d="M7391 4103 c-72 -145 -144 -314 -272 -636 l-19 -48 62 3 62 3 37 95
36 95 190 3 190 2 38 -100 38 -100 63 0 c35 0 64 2 64 5 0 22 -233 570 -306
718 l-28 57 -53 0 -53 0 -49 -97z m172 -198 c35 -83 67 -160 71 -172 l7 -23
-155 0 -155 0 53 128 c88 208 100 232 108 224 4 -4 36 -75 71 -157z"/>
<path d="M5590 4150 l0 -50 130 0 130 0 0 -340 0 -340 60 0 60 0 0 340 0 340
130 0 130 0 0 50 0 50 -320 0 -320 0 0 -50z"/>
<path d="M2773 2774 c-10 -4 -13 -64 -13 -251 l0 -246 88 5 c150 9 228 65 252
183 28 136 -29 257 -138 293 -38 13 -171 24 -189 16z"/>
</g>
</svg>
